<svg width="69" height="70" viewBox="0 0 69 70" fill="none" xmlns="http://www.w3.org/2000/svg">
<circle cx="34.5" cy="35.0984" r="34.5" fill="black"/>
<path d="M39.4168 21.528C40.6886 19.9318 41.5517 17.7885 41.324 15.5984C39.4623 15.6913 37.1903 16.8309 35.875 18.4283C34.6939 19.7963 33.6486 22.0293 33.9211 24.1276C36.0111 24.3095 38.0991 23.0794 39.4168 21.528Z" fill="white"/>
<path d="M41.3001 24.5374C38.265 24.356 35.6844 26.2659 34.235 26.2659C32.7848 26.2659 30.5652 24.6288 28.1646 24.673C25.0401 24.719 22.1409 26.4917 20.5553 29.3111C17.294 34.9512 19.6946 43.3175 22.866 47.9111C24.4061 50.1837 26.2622 52.686 28.7079 52.5961C31.0187 52.5051 31.9244 51.0947 34.7332 51.0947C37.54 51.0947 38.3558 52.5961 40.8019 52.5506C43.3385 52.5051 44.9244 50.2769 46.4645 48.0021C48.2313 45.4114 48.9545 42.91 49 42.7727C48.9545 42.7272 44.1086 40.8618 44.0637 35.2686C44.018 30.5852 47.8682 28.3576 48.0495 28.2194C45.8752 24.9927 42.4779 24.6288 41.3001 24.5374Z" fill="white"/>
</svg>
