<svg width="40" height="40" viewBox="0 0 40 40" fill="none" xmlns="http://www.w3.org/2000/svg">
<path fill-rule="evenodd" clip-rule="evenodd" d="M11.9502 6.66671L15.0002 3.33337H25.0002L28.0502 6.66671H33.3335C35.1668 6.66671 36.6668 8.16671 36.6668 10V30C36.6668 31.8334 35.1668 33.3334 33.3335 33.3334H6.66683C4.8335 33.3334 3.3335 31.8334 3.3335 30V10C3.3335 8.16671 4.8335 6.66671 6.66683 6.66671H11.9502ZM11.6668 20C11.6668 24.6 15.4002 28.3334 20.0002 28.3334C24.6002 28.3334 28.3335 24.6 28.3335 20C28.3335 15.4 24.6002 11.6667 20.0002 11.6667C15.4002 11.6667 11.6668 15.4 11.6668 20ZM25.3332 20.0001C25.3332 22.9456 22.9454 25.3335 19.9998 25.3335C17.0543 25.3335 14.6665 22.9456 14.6665 20.0001C14.6665 17.0546 17.0543 14.6668 19.9998 14.6668C22.9454 14.6668 25.3332 17.0546 25.3332 20.0001Z" fill="#CBC6C6"/>
</svg>
