<svg width="140" height="98" viewBox="0 0 140 98" fill="none" xmlns="http://www.w3.org/2000/svg">
<path d="M49.1585 48.0443L79.1577 48.0443V37.876H49.1585V48.0443Z" fill="#C7C7C7"/>
<path d="M79.1577 37.8778V48.0461H125.92V47.054H124.912V38.8699H125.92V37.8778H79.1577Z" fill="#A6A6A6"/>
<path d="M80.386 46.9899L124.964 46.9899V38.9322L80.386 38.9322V46.9899Z" fill="white"/>
<path d="M80.384 46.9899C91.4963 46.9568 113.855 46.9159 124.964 46.9023L124.88 46.9899V38.9322C118.117 39.2104 98.5 38.8972 91.5392 38.9886L80.3934 38.9614C80.4251 38.7883 80.3934 47.0268 80.3934 46.9899H80.384ZM80.384 46.9899C80.384 46.9626 80.3579 38.9303 80.3579 38.905C80.3579 38.8797 91.5224 38.8797 91.5299 38.8758L124.964 38.835H125.057V38.9322L125.048 46.9899V47.0774H124.964C113.853 47.0657 91.4926 47.0249 80.384 46.9899Z" fill="#DBDBDB"/>
<path d="M108.965 45.2079C112.373 45.2546 115.782 45.287 119.19 45.3052L124.964 45.3208V45.097L119.19 45.1126C115.782 45.1256 112.373 45.1574 108.965 45.2079Z" fill="#DBDBDB"/>
<path d="M80.3843 43.3034V43.5096L87.8267 43.531L98.6141 43.5018C102.023 43.4849 105.431 43.4532 108.84 43.4065C105.431 43.3598 102.023 43.328 98.6141 43.3112L87.8267 43.282L80.3843 43.3034Z" fill="#DBDBDB"/>
<path d="M80.3843 40.2823V40.5314L91.0243 40.5022C94.4353 40.4853 97.8438 40.4535 101.25 40.4069C97.8413 40.3602 94.4328 40.3284 91.0243 40.3115L80.3843 40.2823Z" fill="#DBDBDB"/>
<path d="M80.3843 45.2294V45.4356H83.2421C86.6507 45.42 90.0598 45.3882 93.4696 45.3403C90.0586 45.2962 86.6494 45.2644 83.2421 45.2449L80.3843 45.2294Z" fill="#DBDBDB"/>
<path d="M108.623 41.7569C112.033 41.801 115.442 41.8327 118.851 41.8522L124.964 41.8697V41.644L118.851 41.6616C115.439 41.6771 112.03 41.7089 108.623 41.7569Z" fill="#DBDBDB"/>
<path d="M121.997 42.5836C119.652 42.5707 117.304 42.5609 114.955 42.5544H107.527H100.29C97.9417 42.5544 95.5941 42.5642 93.2471 42.5836C95.5953 42.5966 97.943 42.6063 100.29 42.6128H107.527H114.955C117.303 42.6063 119.65 42.5966 121.997 42.5836Z" fill="#DBDBDB"/>
<path d="M119.06 30.3202H89.0605V37.8779H119.06V30.3202Z" fill="#EBEBEB"/>
<path d="M89.0583 37.8779V30.3202H42.2964V31.0575H43.3044V37.1406H42.2964V37.8779H89.0583Z" fill="#DBDBDB"/>
<path d="M87.8323 31.1041H43.2544V37.0939H87.8323V31.1041Z" fill="white"/>
<path d="M87.8318 31.1041C76.7196 31.1392 54.3606 31.18 43.254 31.1936L43.3398 31.1041V37.0939C42.75 36.8254 65.6689 37.1114 65.5364 37.0258C71.0878 37.0258 82.2766 37.053 87.8262 37.0725C87.7945 37.2009 87.8262 31.0788 87.8262 31.1041H87.8318ZM87.8318 31.1041L87.8524 37.0939V37.1153H87.8318C82.271 37.1347 71.1009 37.16 65.542 37.162L43.254 37.1911H43.1606V37.0939V31.1041V31.0146H43.2465C54.3569 31.0283 76.7177 31.0691 87.8244 31.1041H87.8318Z" fill="#DBDBDB"/>
<path d="M59.2535 32.429C55.845 32.394 52.4358 32.37 49.026 32.357L43.2524 32.3453V32.5107L49.026 32.501C52.4308 32.4919 55.84 32.4679 59.2535 32.429Z" fill="#DBDBDB"/>
<path d="M87.8319 33.8491V33.6954L80.3914 33.6798L69.6039 33.7012C66.1954 33.7142 62.7862 33.7375 59.3765 33.7712C62.785 33.8063 66.1942 33.8302 69.6039 33.8432L80.3914 33.8646L87.8319 33.8491Z" fill="#DBDBDB"/>
<path d="M87.8323 36.09V35.8955L77.1923 35.9169C73.7825 35.9299 70.3734 35.9539 66.9648 35.9889C70.3734 36.0213 73.7825 36.0447 77.1923 36.0589L87.8323 36.09Z" fill="#DBDBDB"/>
<path d="M87.832 32.4133V32.2596H84.9741C81.5656 32.2713 78.1571 32.2953 74.7485 32.3316C78.1571 32.3653 81.5656 32.3887 84.9741 32.4017L87.832 32.4133Z" fill="#DBDBDB"/>
<path d="M59.5951 34.9949C56.1853 34.9625 52.7755 34.9385 49.3658 34.9229L43.2524 34.9113V35.0786L49.3658 35.0649C52.7768 35.0533 56.1866 35.0299 59.5951 34.9949Z" fill="#DBDBDB"/>
<path d="M46.2183 34.3802C48.5665 34.3905 50.9142 34.3977 53.2612 34.4016H60.6905H67.9257C70.274 34.4016 72.6216 34.3944 74.9687 34.3802C72.6216 34.3685 70.274 34.3614 67.9257 34.3588H60.6905H53.2612C50.9129 34.3627 48.5653 34.3698 46.2183 34.3802Z" fill="#DBDBDB"/>
<path d="M61.0212 15.1095H19.3945V48.0462H61.0212V15.1095Z" fill="#EBEBEB"/>
<path d="M76.841 15.1095H61.021V48.0462H76.841V15.1095Z" fill="#DBDBDB"/>
<path d="M19.3945 31.4504H61.0212L28.5132 32.3044L19.3945 31.4504Z" fill="#DBDBDB"/>
<path d="M61.0212 44.0369H19.3945L51.9044 44.8909L61.0212 44.0369Z" fill="#DBDBDB"/>
<path d="M19.3945 22.1731H45.7631L22.3233 22.8695L19.3945 22.1731Z" fill="#DBDBDB"/>
<path d="M61.021 39.1501H34.6543L58.0922 39.8466L61.021 39.1501Z" fill="#DBDBDB"/>
<path d="M64.5156 17.158H38.1489L61.5887 17.8563L64.5156 17.158Z" fill="#DBDBDB"/>
<path d="M37.4453 19.2454H67.185L62.2272 19.6636L37.4453 19.2454Z" fill="#DBDBDB"/>
<path d="M23.4414 35.0084H53.1811L48.2233 35.4267L23.4414 35.0084Z" fill="#DBDBDB"/>
<path d="M41.729 25.3323H61.021L64.4687 26.4489L41.729 25.3323Z" fill="#EBEBEB"/>
<path d="M46.3789 36.4617H65.6709L69.1168 37.5783L46.3789 36.4617Z" fill="#EBEBEB"/>
<path d="M42.1362 41.3658H61.4282L64.876 42.4825L42.1362 41.3658Z" fill="#EBEBEB"/>
<path d="M14.0801 25.3323H33.3721L36.8179 26.4489L14.0801 25.3323Z" fill="#DBDBDB"/>
<path d="M38.8341 18.8971H19.5439L16.0962 20.0118L38.8341 18.8971Z" fill="#EBEBEB"/>
<path d="M39.8774 38.5918H20.5854L17.1377 39.7084L39.8774 38.5918Z" fill="#EBEBEB"/>
<path d="M38.8341 40.2512H19.5439L16.0962 41.3659L38.8341 40.2512Z" fill="#DBDBDB"/>
<path d="M61.021 36.4617H76.5125L79.9602 37.5783L61.021 36.4617Z" fill="#DBDBDB"/>
<path d="M66.4287 31.4505H78.4426L76.841 30.5381L66.4287 31.4505Z" fill="#DBDBDB"/>
<path d="M10.3525 48.0502C48.5669 47.9315 91.4331 47.9296 129.647 48.0502C91.4331 48.1708 48.5669 48.1688 10.3525 48.0502Z" fill="#263238"/>
<path d="M87.2573 75.5905L105.795 70.8419L129.349 74.2618L110.01 79.3625L87.2573 75.5905Z" fill="#DBDBDB"/>
<path d="M87.2573 75.5904L105.79 70.8204C105.79 70.8204 129.36 74.217 129.36 74.2151L129.597 74.2481L129.36 74.3123L110.01 79.3897C110.01 79.3897 87.2648 75.5885 87.2573 75.5904ZM87.2573 75.5904C87.2573 75.5904 110.046 79.3391 110.005 79.3372L129.338 74.2151V74.3104C129.338 74.3104 105.765 70.8613 105.801 70.8632L87.2573 75.5904Z" fill="#DBDBDB"/>
<path d="M109.273 78.0397C110.413 77.674 111.589 77.3335 112.769 76.997C113.949 76.6605 115.147 76.3375 116.349 76.0243C117.552 75.7111 118.776 75.394 120.004 75.0964L121.856 74.6509C122.487 74.5108 123.105 74.363 123.743 74.2307C123.183 74.4155 122.59 74.5848 122.013 74.7637L120.249 75.2715C119.073 75.6119 117.871 75.9329 116.669 76.2442C115.467 76.5554 114.242 76.8744 113.014 77.1721C111.785 77.4697 110.546 77.7674 109.273 78.0397Z" fill="#C7C7C7"/>
<path d="M112.336 76.1079C113.643 75.641 115.054 75.2402 116.484 74.859C117.914 74.4777 119.388 74.1178 120.96 73.8376C119.653 74.3065 118.244 74.7053 116.812 75.0866C115.38 75.4679 113.898 75.82 112.336 76.1079Z" fill="#C7C7C7"/>
<path d="M103.688 77.2674C104.829 76.9016 106.005 76.5612 107.184 76.2247C108.364 75.8881 109.562 75.5652 110.765 75.252C111.967 74.9388 113.191 74.6217 114.418 74.3241L116.271 73.8805C116.9 73.7405 117.52 73.5926 118.158 73.4584C117.598 73.6432 117.005 73.8144 116.428 73.9914L114.664 74.5011C113.486 74.8396 112.286 75.1606 111.084 75.4738C109.882 75.787 108.657 76.104 107.429 76.4017C106.201 76.6993 104.961 76.995 103.688 77.2674Z" fill="#C7C7C7"/>
<path d="M102.975 76.3317C104.914 75.6975 106.951 75.1333 109.011 74.5808C111.072 74.0284 113.174 73.5148 115.358 73.0615C113.419 73.6957 111.382 74.2599 109.323 74.8123C107.264 75.3648 105.166 75.8784 102.975 76.3317Z" fill="#C7C7C7"/>
<path d="M105.398 74.571C106.468 74.1664 107.638 73.8299 108.827 73.5108C110.016 73.1918 111.254 72.9039 112.573 72.6782C111.504 73.0848 110.333 73.4194 109.146 73.7384C107.959 74.0575 106.72 74.3454 105.398 74.571Z" fill="#C7C7C7"/>
<path d="M10.6514 55.6487L36.374 50.5752L61.1951 58.1329L35.6012 63.3892L10.6514 55.6487Z" fill="#EBEBEB"/>
<path d="M10.6514 55.6487L36.3759 50.5499C36.3759 50.5499 61.2026 58.0882 61.2026 58.0862L61.3892 58.1426L61.2026 58.1815L35.6012 63.4184C35.5919 63.4184 10.6588 55.6545 10.6514 55.6545V55.6487ZM10.6514 55.6487L35.6087 63.3639C35.5471 63.3776 61.2026 58.0804 61.182 58.0862V58.1796L36.3684 50.5927C36.417 50.5811 10.6439 55.6506 10.6514 55.6506V55.6487Z" fill="#DBDBDB"/>
<path d="M35.2407 61.8486C36.9207 61.4439 38.6138 61.0704 40.3143 60.695C42.0149 60.3195 43.7285 59.9616 45.4439 59.6075C47.1594 59.2535 48.8842 58.9072 50.6202 58.5784L53.2242 58.0843C54.0997 57.9287 54.9677 57.7653 55.8506 57.6174C55.0143 57.8217 54.1706 58.0065 53.3231 58.201L50.7733 58.771C49.0746 59.1484 47.3591 59.5044 45.6455 59.8585C43.9319 60.2125 42.2053 60.5588 40.4693 60.8876C38.7333 61.2163 36.9991 61.549 35.2407 61.8486Z" fill="#DBDBDB"/>
<path d="M41.834 59.1581C43.6671 58.6659 45.5673 58.2496 47.4732 57.8527C49.3791 57.4559 51.3204 57.094 53.314 56.8003C51.4809 57.2925 49.5806 57.7088 47.6748 58.1056C45.7689 58.5025 43.8276 58.8643 41.834 59.1581Z" fill="#DBDBDB"/>
<path d="M32.7041 59.695C34.1694 59.3332 35.6553 59.0005 37.1449 58.6698C38.6345 58.3391 40.1316 58.0259 41.6398 57.7127C43.1481 57.3995 44.6582 57.0999 46.1833 56.8139L48.47 56.386C49.2409 56.2517 50.0025 56.1097 50.779 55.9833C50.0492 56.1661 49.3062 56.3334 48.5689 56.5085L46.3382 57.0085C44.8449 57.3411 43.3516 57.6524 41.8433 57.9656C40.335 58.2788 38.8268 58.5764 37.3017 58.8643C35.7766 59.1522 34.2534 59.4382 32.7041 59.695Z" fill="#DBDBDB"/>
<path d="M31.5078 58.6037C32.8611 58.2652 34.235 57.954 35.6145 57.6466C36.9939 57.3392 38.3827 57.0474 39.7753 56.7595C41.1678 56.4716 42.5753 56.1915 43.9827 55.9289L46.1014 55.5398C46.8163 55.4172 47.5238 55.2869 48.2443 55.1721C47.5705 55.3453 46.8817 55.4989 46.2022 55.6643L44.1377 56.1292C42.7619 56.4385 41.3694 56.7284 39.9769 57.0163C38.5843 57.3042 37.1769 57.5824 35.7694 57.847C34.3619 58.1115 32.9451 58.3605 31.5078 58.6037Z" fill="#DBDBDB"/>
<path d="M25.0996 58.5823C26.7796 58.1777 28.4727 57.8042 30.1732 57.4268C31.8737 57.0494 33.5873 56.6953 35.3028 56.3393C37.0183 55.9833 38.7431 55.641 40.4772 55.3102L43.0905 54.8161C43.966 54.6624 44.834 54.4971 45.7169 54.3492C44.8807 54.5555 44.0369 54.7383 43.1895 54.9328L40.6415 55.497C38.9428 55.8725 37.2273 56.2284 35.5137 56.5844C33.8001 56.9404 32.0735 57.2828 30.3375 57.6135C28.6015 57.9442 26.858 58.2808 25.0996 58.5823Z" fill="#DBDBDB"/>
<path d="M24.8867 57.2886C26.3689 56.9228 27.8734 56.5863 29.3798 56.2517C30.8862 55.9171 32.4075 55.6 33.9288 55.279C35.4502 54.958 36.9808 54.6584 38.5227 54.3686L40.8374 53.9348C41.6158 53.7986 42.3886 53.6546 43.1726 53.5282C42.4259 53.713 41.6792 53.8803 40.9326 54.0593L38.6758 54.5631C37.1713 54.8997 35.6499 55.2148 34.1286 55.5358C32.6073 55.8568 31.0747 56.1564 29.5329 56.4462C27.991 56.7361 26.4529 57.0279 24.8867 57.2886Z" fill="#DBDBDB"/>
<path d="M20.0278 56.9482C21.7078 56.5435 23.4009 56.17 25.1033 55.7946C26.8057 55.4191 28.5174 55.0534 30.2404 54.7071C31.9633 54.3609 33.6806 54.0068 35.4166 53.678L38.0206 53.1839C38.8961 53.0283 39.766 52.8649 40.647 52.717C39.8108 52.9213 38.967 53.1061 38.1214 53.3006L35.5734 53.8667C33.8748 54.2422 32.1593 54.5982 30.4438 54.9523C28.7284 55.3063 27.0036 55.6526 25.2676 55.9813C23.5316 56.3101 21.7881 56.6486 20.0278 56.9482Z" fill="#DBDBDB"/>
<path d="M25.9209 54.4017C27.8716 53.8843 29.8838 53.4446 31.911 53.0244C33.9382 52.6042 35.9916 52.2171 38.1028 51.9C36.1521 52.4175 34.1417 52.8552 32.1126 53.2773C30.0836 53.6995 28.0321 54.0808 25.9209 54.4017Z" fill="#DBDBDB"/>
<path d="M48.3433 81.5491L81.0323 75.1022L112.572 84.7064L80.0486 91.3847L48.3433 81.5491Z" fill="#EBEBEB"/>
<path d="M48.347 81.5491L81.0323 75.0769C81.0323 75.0769 112.579 84.6616 112.579 84.6597L112.766 84.7161L112.579 84.755L80.0486 91.4101C80.0392 91.412 48.347 81.5491 48.347 81.5491ZM48.347 81.5491L80.0598 91.3614C80.0019 91.3614 112.581 84.6558 112.566 84.6597V84.7531L81.0249 75.1255C81.0734 75.11 48.3358 81.5588 48.3433 81.5452L48.347 81.5491Z" fill="#DBDBDB"/>
<path d="M79.5894 89.4277C81.7192 88.9142 83.8827 88.4337 86.0387 87.9609C88.1947 87.4882 90.3768 87.0311 92.5552 86.5797C94.7336 86.1284 96.927 85.6907 99.1334 85.2705L102.443 84.6441C103.563 84.4496 104.659 84.2375 105.781 84.0508C104.718 84.3115 103.639 84.5507 102.57 84.8017L99.3312 85.5176C97.1734 85.9961 94.9931 86.4475 92.8147 86.8988C90.6363 87.3501 88.443 87.7878 86.2366 88.206C84.0302 88.6243 81.8256 89.0464 79.5894 89.4277Z" fill="#DBDBDB"/>
<path d="M87.9688 86.0078C90.2983 85.3833 92.7064 84.8542 95.133 84.3504C97.5597 83.8465 100.024 83.3777 102.559 83.012C100.229 83.6384 97.8191 84.1675 95.3925 84.6713C92.9658 85.1752 90.5018 85.6343 87.9688 86.0078Z" fill="#DBDBDB"/>
<path d="M76.3672 86.6906C78.2339 86.2315 80.1173 85.8074 82.0101 85.3892C83.9029 84.9709 85.8125 84.5702 87.7221 84.1733C89.6317 83.7765 91.5563 83.3952 93.4939 83.0295L96.4021 82.4848C97.3803 82.3155 98.3491 82.1346 99.3365 81.9751C98.4032 82.2085 97.4699 82.4206 96.5365 82.6424L93.7029 83.2765C91.812 83.6987 89.9005 84.0955 87.9909 84.4924C86.0813 84.8892 84.1549 85.2705 82.2173 85.6343C80.2797 85.9981 78.3347 86.3735 76.3672 86.6906Z" fill="#DBDBDB"/>
<path d="M74.8535 85.3036C76.5727 84.8737 78.3199 84.4788 80.0802 84.0897C81.8404 83.7006 83.597 83.3271 85.3666 82.9594C87.1362 82.5918 88.9132 82.2397 90.7127 81.9051L93.4082 81.4032C94.3154 81.2495 95.2132 81.0822 96.1298 80.9363C95.273 81.1561 94.3994 81.3526 93.5332 81.5607L90.9106 82.1443C89.1634 82.5334 87.3938 82.905 85.6242 83.2726C83.8546 83.6403 82.0775 83.9924 80.278 84.327C78.4786 84.6616 76.6716 85.0118 74.8535 85.3036Z" fill="#DBDBDB"/>
<path d="M66.7017 85.2764C68.8315 84.7628 70.995 84.2823 73.151 83.8096C75.307 83.3369 77.4891 82.8797 79.6675 82.4284C81.8459 81.9771 84.0393 81.5394 86.2401 81.1211L89.5497 80.4947C90.6697 80.3002 91.7654 80.0882 92.8873 79.9111C91.8251 80.1718 90.7462 80.4111 89.6766 80.662L86.4379 81.3779C84.2801 81.8565 82.0998 82.3078 79.9214 82.7591C77.743 83.2104 75.5497 83.6482 73.3433 84.0664C71.1369 84.4847 68.9379 84.8951 66.7017 85.2764Z" fill="#DBDBDB"/>
<path d="M66.4331 83.6325C68.3166 83.1695 70.228 82.7396 72.1432 82.3174C74.0584 81.8953 75.9886 81.4887 77.9299 81.086C79.8712 80.6834 81.8088 80.2982 83.7688 79.9305L86.7014 79.3702C87.6926 79.1991 88.6726 79.0162 89.6712 78.8528C88.7379 79.0882 87.7766 79.3022 86.8283 79.5278L83.9611 80.1698C82.0478 80.5958 80.1139 80.9985 78.1744 81.3992C76.235 81.8 74.2955 82.1774 72.3355 82.5548C70.3755 82.9322 68.423 83.3018 66.4331 83.6325Z" fill="#DBDBDB"/>
<path d="M60.2578 83.2007C62.3877 82.6871 64.5511 82.2066 66.7071 81.7339C68.8631 81.2612 71.0453 80.804 73.2237 80.3527C75.4021 79.9014 77.5954 79.4637 79.8018 79.0435L83.1114 78.4171C84.2314 78.2225 85.3271 78.0105 86.4471 77.8237C85.3869 78.0844 84.3079 78.3237 83.2383 78.5746L79.9997 79.2905C77.8418 79.7691 75.6615 80.2204 73.4831 80.6717C71.3047 81.123 69.1114 81.5607 66.905 81.979C64.6986 82.3972 62.4941 82.8194 60.2578 83.2007Z" fill="#DBDBDB"/>
<path d="M67.7471 79.9636C70.226 79.308 72.7871 78.7497 75.3575 78.2128C77.9279 77.6759 80.5449 77.1856 83.2273 76.783C80.7484 77.4405 78.1873 77.9988 75.6151 78.5338C73.0428 79.0687 70.4295 79.5648 67.7471 79.9636Z" fill="#DBDBDB"/>
<path d="M128.221 65.2099L67.7002 82.6364V70.0752L128.221 52.6488C131.428 58.8117 128.221 65.2099 128.221 65.2099Z" fill="#37474F"/>
<path d="M8.64258 73.9232L67.7002 82.6364V79.4519L14.0428 72.6121L8.64258 72.9505V73.9232Z" fill="#455A64"/>
<path d="M67.7022 70.1337C69.9086 75.6682 67.7022 82.6364 67.7022 82.6364L11.4912 73.3843V62.5273L67.7022 70.1337Z" fill="#455A64"/>
<path d="M66.3115 69.9469C68.46 75.46 66.4888 81.3972 66.4888 81.3972L11.4912 73.3396V62.5234L66.3115 69.9469Z" fill="white"/>
<path d="M66.3115 69.9469C66.3843 70.1608 66.5953 70.7639 66.6681 70.9759C67.1048 72.4904 67.3261 74.0634 67.3251 75.6448C67.3333 77.5955 67.0609 79.5365 66.5169 81.403C66.543 81.4886 11.4969 73.4057 11.4782 73.4271L11.3979 73.4154V73.3395V62.5234V62.4242L11.4913 62.4378L38.9126 66.1787L66.3003 69.943L66.3115 69.9469ZM66.3115 69.9469C52.8267 68.0579 24.6083 64.5719 11.5734 62.5273L11.5827 73.3434L11.5025 73.2462C11.5025 73.2676 66.6139 81.3369 66.4571 81.3875C66.7359 80.4611 66.9444 79.5134 67.0806 78.5531C67.4969 75.6798 67.3363 72.6645 66.3097 69.9469H66.3115Z" fill="#DBDBDB"/>
<path d="M38.1025 67.2118C47.2791 68.379 57.5569 69.8186 66.7017 71.2328C57.5252 70.0656 47.2473 68.6241 38.1025 67.2118Z" fill="#DBDBDB"/>
<path d="M11.4912 66.4841C19.3573 67.4568 28.084 68.6902 35.9221 69.9177C28.0504 68.945 19.3275 67.7155 11.4912 66.4841Z" fill="#DBDBDB"/>
<path d="M12.8013 67.5521C26.1685 69.3029 41.1447 71.4078 54.4765 73.4096C41.1111 71.6588 26.1349 69.5539 12.8013 67.5521Z" fill="#DBDBDB"/>
<path d="M20.0273 71.2269C33.8929 73.0147 49.4292 75.1624 63.2612 77.2011C49.3975 75.4153 33.8612 73.2657 20.0273 71.2269Z" fill="#DBDBDB"/>
<path d="M29.3477 73.5146C41.4399 75.0904 55.0013 76.9929 67.0655 78.8177C54.9677 77.2458 41.4138 75.3394 29.3477 73.5146Z" fill="#DBDBDB"/>
<path d="M18.48 73.4933C33.9733 75.5515 51.3333 77.9909 66.7874 80.2845C51.2941 78.2283 33.9341 75.7869 18.48 73.4933Z" fill="#DBDBDB"/>
<path d="M67.702 70.1337L128.221 52.6489L67.0655 49.762L8.64258 61.0528V62.1422L67.702 70.1337Z" fill="#455A64"/>
<path d="M69.2534 68.2116C76.7612 65.8402 84.4724 63.6984 92.1761 61.8484C84.6702 64.2217 76.959 66.3597 69.2534 68.2116Z" fill="#37474F"/>
<path d="M54.7344 67.0989C56.825 67.2117 58.9848 67.4646 61.0605 67.7272C63.1362 67.9898 65.2792 68.3108 67.3138 68.7485C65.2232 68.6376 63.0634 68.3828 60.9896 68.1202C58.9157 67.8576 56.7709 67.5269 54.7344 67.0989Z" fill="#37474F"/>
<path d="M10.2666 61.2648C24.4813 62.8561 38.8098 64.7333 52.9293 66.8596C38.7034 65.2722 24.3767 63.391 10.2666 61.2648Z" fill="#37474F"/>
<path d="M108.827 59.7339C114.733 57.8002 120.71 56.0384 126.76 54.4484C120.856 56.382 114.878 58.1439 108.827 59.7339Z" fill="#455A64"/>
<path d="M77.446 50.1531C76.662 50.3126 73.4252 50.4936 73.3599 49.764C73.2591 48.6669 81.0001 40.8855 83.7777 39.4226C86.4191 38.0297 94.9292 34.9911 97.0311 34.9249L97.0497 41.9126C95.8607 42.2278 86.3873 41.2648 84.3975 42.3659C83.5332 42.8444 82.3889 44.8287 80.0593 47.9802C79.2399 49.091 77.9089 50.0578 77.446 50.1531Z" fill="#FFC727"/>
<g opacity="0.3">
<path d="M77.446 50.1531C76.662 50.3126 73.4252 50.4936 73.3599 49.764C73.2591 48.6669 81.0001 40.8855 83.7777 39.4226C86.4191 38.0297 94.9292 34.9911 97.0311 34.9249L97.0497 41.9126C95.8607 42.2278 86.3873 41.2648 84.3975 42.3659C83.5332 42.8444 82.3889 44.8287 80.0593 47.9802C79.2399 49.091 77.9089 50.0578 77.446 50.1531Z" fill="black"/>
</g>
<path d="M75.8387 50.1531C75.0528 50.3126 72.0437 50.4936 71.9765 49.764C71.8776 48.6669 79.6187 40.8855 82.3944 39.4226C85.0357 38.0297 94.9291 34.9911 97.0309 34.9249L97.0496 41.9126C95.8605 42.2278 85.0059 41.2648 83.016 42.3659C82.1517 42.8444 80.776 44.8287 78.4501 47.9802C77.6325 49.091 76.3016 50.0578 75.8387 50.1531Z" fill="#FFC727"/>
<g opacity="0.2">
<path d="M75.8387 50.1531C75.0528 50.3126 72.0437 50.4936 71.9765 49.764C71.8776 48.6669 79.6187 40.8855 82.3944 39.4226C85.0357 38.0297 94.9291 34.9911 97.0309 34.9249L97.0496 41.9126C95.8605 42.2278 85.0059 41.2648 83.016 42.3659C82.1517 42.8444 80.776 44.8287 78.4501 47.9802C77.6325 49.091 76.3016 50.0578 75.8387 50.1531Z" fill="black"/>
</g>
<path d="M106.36 59.4246C107.036 59.7203 109.694 59.8701 110.15 59.2729C110.837 58.3683 102.455 46.0601 97.5311 43.8268C92.926 41.755 27.9567 28.6045 26.6164 28.3866L26.5679 33.8491C35.6193 35.3237 93.0529 44.8598 96.6052 46.4725C98.9217 47.521 101.873 53.0536 103.993 56.8762C104.85 58.4286 105.576 59.0823 106.36 59.4246Z" fill="#FFC727"/>
<g opacity="0.2">
<path d="M106.36 59.4246C107.036 59.7203 109.694 59.8701 110.15 59.2729C110.837 58.3683 102.455 46.0601 97.5311 43.8268C92.926 41.755 27.9567 28.6045 26.6164 28.3866L26.5679 33.8491C35.6193 35.3237 93.0529 44.8598 96.6052 46.4725C98.9217 47.521 101.873 53.0536 103.993 56.8762C104.85 58.4286 105.576 59.0823 106.36 59.4246Z" fill="black"/>
</g>
<path d="M105.239 59.4246C105.915 59.7203 108.573 59.8701 109.028 59.2729C109.715 58.3683 101.395 45.7625 96.473 43.5292C91.866 41.4574 27.957 28.5967 26.6167 28.3866L25.4463 33.8491C34.4978 35.3237 91.9314 44.8598 95.4836 46.4725C97.8002 47.521 100.751 53.0536 102.872 56.8762C103.729 58.4286 104.455 59.0823 105.239 59.4246Z" fill="#FFC727"/>
<g opacity="0.1">
<path d="M105.239 59.4246C105.915 59.7203 108.573 59.8701 109.028 59.2729C109.715 58.3683 101.395 45.7625 96.473 43.5292C91.866 41.4574 27.957 28.5967 26.6167 28.3866L25.4463 33.8491C34.4978 35.3237 91.9314 44.8598 95.4836 46.4725C97.8002 47.521 100.751 53.0536 102.872 56.8762C103.729 58.4286 104.455 59.0823 105.239 59.4246Z" fill="black"/>
</g>
<g opacity="0.1">
<path d="M39.2001 30.9078L34.2833 35.314C30.1934 34.6331 27.0555 34.1176 25.4502 33.855L26.6187 28.3866C26.9827 28.445 31.9985 29.4468 39.2001 30.9078Z" fill="black"/>
<path d="M51.774 38.2632L48.7201 37.7399L45.8828 32.2695L50.3796 33.1955L51.774 38.2632Z" fill="black"/>
<path d="M68.9734 37.0901L65.5201 40.6364L62.4531 40.0995L64.9059 36.2263C66.2686 36.5129 67.6244 36.8008 68.9734 37.0901Z" fill="black"/>
<path d="M96.0513 43.3678L94.8623 46.2644C94.2911 46.0971 93.4305 45.887 92.3236 45.6438L91.4668 42.113C93.6209 42.6422 95.2113 43.0721 96.0513 43.3678Z" fill="black"/>
</g>
<path d="M38.9649 62.2862C32.1963 61.9458 27.0462 53.9562 27.483 44.4785C27.6902 39.9556 29.1257 35.7497 31.5225 32.6352C33.9995 29.4176 37.1971 27.729 40.5571 27.9061C43.9171 28.0831 46.9449 30.0673 49.1121 33.5203C51.2121 36.8547 52.2537 41.187 52.0427 45.7138C51.6283 54.6818 46.3531 61.8213 40.0494 62.2745C39.6884 62.2999 39.3263 62.3038 38.9649 62.2862ZM33.2454 34.0787C31.1379 36.8119 29.8667 40.5469 29.6801 44.5913C29.3067 52.8007 33.5123 59.7086 39.0675 59.9868C44.6227 60.265 49.4518 53.8123 49.8345 45.5912C50.0211 41.5469 49.1046 37.7048 47.2622 34.7693C45.487 31.9504 43.0659 30.3261 40.4451 30.1957C40.166 30.1782 39.8861 30.1782 39.607 30.1957C37.2849 30.3806 35.0523 31.7287 33.2454 34.0748V34.0787ZM27.4923 45.6827C27.1507 38.7494 27.8955 37.6639 27.5931 35.6194C27.4494 34.6467 26.1353 33.7129 26.1353 33.7129L27.2833 28.7348C27.2833 28.7348 30.8617 29.0986 31.6867 29.1122C33.1539 29.1336 36.3217 28.017 39.0806 27.945C39.0806 27.945 33.083 30.7541 31.1547 34.3354C29.2265 37.9168 27.4923 45.6788 27.4923 45.6788V45.6827Z" fill="#FFC727"/>
<path opacity="0.1" d="M38.9649 62.2862C32.1963 61.9458 27.0462 53.9562 27.483 44.4785C27.6902 39.9556 29.1257 35.7497 31.5225 32.6352C33.9995 29.4176 37.1971 27.729 40.5571 27.9061C43.9171 28.0831 46.9449 30.0673 49.1121 33.5203C51.2121 36.8547 52.2537 41.187 52.0427 45.7138C51.6283 54.6818 46.3531 61.8213 40.0494 62.2745C39.6884 62.2999 39.3263 62.3038 38.9649 62.2862ZM33.2454 34.0787C31.1379 36.8119 29.8667 40.5469 29.6801 44.5913C29.3067 52.8007 33.5123 59.7086 39.0675 59.9868C44.6227 60.265 49.4518 53.8123 49.8345 45.5912C50.0211 41.5469 49.1046 37.7048 47.2622 34.7693C45.487 31.9504 43.0659 30.3261 40.4451 30.1957C40.166 30.1782 39.8861 30.1782 39.607 30.1957C37.2849 30.3806 35.0523 31.7287 33.2454 34.0748V34.0787ZM27.4923 45.6827C27.1507 38.7494 27.8955 37.6639 27.5931 35.6194C27.4494 34.6467 26.1353 33.7129 26.1353 33.7129L27.2833 28.7348C27.2833 28.7348 30.8617 29.0986 31.6867 29.1122C33.1539 29.1336 36.3217 28.017 39.0806 27.945C39.0806 27.945 33.083 30.7541 31.1547 34.3354C29.2265 37.9168 27.4923 45.6788 27.4923 45.6788V45.6827Z" fill="black"/>
<path d="M38.0444 62.2862C31.274 61.9458 26.1238 53.9562 26.5606 44.4785C26.7678 39.9556 28.2033 35.7497 30.6001 32.6352C33.0772 29.4176 36.2748 27.729 39.6348 27.9061C42.9948 28.0831 46.0225 30.0673 48.1897 33.5203C50.2897 36.8547 51.3313 41.187 51.1204 45.7138C50.706 54.6818 45.4308 61.8213 39.127 62.2745C38.7666 62.2998 38.4052 62.3037 38.0444 62.2862ZM32.323 34.0787C30.2156 36.8158 28.9518 40.5508 28.7652 44.5952C28.3918 52.8046 32.5956 59.7125 38.1508 59.9907C43.706 60.2689 48.535 53.8162 48.9177 45.5951C49.1044 41.5507 48.1878 37.7087 46.3454 34.7731C44.5721 31.9543 42.1492 30.33 39.5284 30.1996C39.2492 30.1821 38.9693 30.1821 38.6902 30.1996C36.3644 30.3806 34.13 31.7287 32.323 34.0748V34.0787ZM26.57 45.6827C26.2284 38.7494 26.9732 37.6639 26.6708 35.6194C26.527 34.6467 25.2129 33.7129 25.2129 33.7129L26.4132 28.1648C26.4132 28.1648 30.0513 28.8359 30.8745 28.8476C32.3417 28.871 35.3993 28.017 38.1545 27.9528C38.1545 27.9528 32.1569 30.7618 30.2286 34.3432C28.3004 37.9246 26.57 45.6788 26.57 45.6788V45.6827Z" fill="#FFC727"/>
<path d="M30.0011 30.7035C29.9582 31.0478 29.344 31.2462 28.6291 31.147C27.9142 31.0478 27.3728 30.6879 27.4176 30.3455C27.4624 30.0032 28.0747 29.8028 28.7896 29.902C29.5046 30.0012 30.0534 30.3592 30.0011 30.7035Z" fill="#A6A6A6"/>
<path d="M27.731 30.3573C27.7888 30.1919 28.4104 30.0052 29.0899 30.1958L27.731 30.3573Z" fill="white"/>
<path d="M26.1331 33.7577C27.4249 34.5125 27.9774 35.6252 27.8318 37.1659C27.6881 39.8389 27.3987 42.4865 27.395 45.1594C27.3774 46.4934 27.4598 47.8267 27.6414 49.1473C26.8145 45.8908 27.0609 42.4573 27.3521 39.1405L27.5387 37.1484C27.7403 35.6583 27.2886 34.6389 26.1294 33.7577H26.1331Z" fill="white"/>
<path d="M32.8794 29.1686C34.6714 28.6356 36.5325 28.196 38.4066 28.2835C36.5399 28.4566 34.7274 28.8924 32.8794 29.1686Z" fill="white"/>
<path opacity="0.1" d="M32.8775 34.2167C30.8409 36.9402 29.6201 40.652 29.4372 44.6749C29.0732 52.8454 33.1425 59.7086 38.5111 59.9868C43.8796 60.265 48.5481 53.8453 48.9177 45.6787C49.1044 41.6577 48.214 37.8351 46.4332 34.9171C44.7177 32.1119 42.3769 30.4972 39.842 30.3669C39.5722 30.3494 39.3016 30.3494 39.0319 30.3669C36.7825 30.542 34.6247 31.8804 32.8775 34.2167Z" fill="#EBEBEB"/>
<g opacity="0.2">
<path d="M43.1797 31.4641L29.4223 46.2157C29.4092 45.706 29.4223 45.1944 29.4391 44.673C29.5042 43.151 29.7283 41.641 30.1074 40.1696L39.254 30.3669C39.4407 30.3669 39.6479 30.3669 39.8458 30.3669C41.0275 30.4371 42.1736 30.8142 43.1797 31.4641Z" fill="white"/>
<path d="M47.9734 38.3235L31.9518 55.5028C31.6571 55.0266 31.3903 54.5322 31.1528 54.0224L47.3387 36.666C47.5802 37.2055 47.7921 37.7589 47.9734 38.3235Z" fill="white"/>
<path d="M48.5965 48.587C48.4009 49.6953 48.1149 50.7841 47.7416 51.8416L40.2843 59.837C39.702 59.9679 39.1058 60.0183 38.5109 59.9868C38.3429 59.9771 38.1749 59.9634 38.0088 59.9401L48.5965 48.587Z" fill="white"/>
<path d="M48.6264 40.9671L33.3477 57.3489C33.2749 57.2749 33.2059 57.1971 33.1387 57.1174L48.5555 40.5819C48.5835 40.7103 48.604 40.8406 48.6264 40.9671Z" fill="white"/>
</g>
<path d="M60.0544 46.1379L61.5477 44.4474C59.1472 42.1324 53.4968 38.8993 49.2632 43.1888L50.8013 44.8384C54.5944 40.9886 59.8323 45.9278 60.0544 46.1379Z" fill="#FFC727"/>
<path d="M74.3416 64.3911C70.0323 63.5665 66.2131 60.9932 63.7229 57.2363C61.2326 53.4795 60.275 48.8461 61.0603 44.354C61.6485 41.0043 63.1765 37.9116 65.4512 35.4669C67.726 33.0223 70.6452 31.3354 73.8397 30.6197C77.0343 29.904 80.3608 30.1915 83.3986 31.446C86.4364 32.7004 89.049 34.8654 90.9062 37.6672C92.7633 40.4691 93.7816 43.7819 93.8322 47.1868C93.8828 50.5917 92.9635 53.9357 91.1905 56.7961C89.4174 59.6565 86.8704 61.9048 83.8713 63.2567C80.8723 64.6086 77.556 65.0033 74.3416 64.3911ZM63.2331 44.7742C62.7014 47.8271 63.0978 50.9769 64.3672 53.7837C65.6365 56.5904 67.7153 58.9139 70.3132 60.4296C72.9111 61.9454 75.8984 62.5777 78.8579 62.2383C81.8173 61.8989 84.6012 60.6047 86.8206 58.5364C89.0401 56.4681 90.5842 53.7291 91.2375 50.7019C91.8908 47.6747 91.6205 44.5104 90.4644 41.651C89.3083 38.7916 87.3241 36.3799 84.789 34.7528C82.254 33.1256 79.2945 32.3642 76.324 32.5749C73.1523 32.8059 70.1445 34.1301 67.7744 36.3388C65.4043 38.5474 63.8066 41.5151 63.2331 44.7742Z" fill="#FFC727"/>
<path d="M92.0264 40.0976C90.8896 36.1641 84.2686 31.8396 84.2686 31.8396C86.9491 32.5263 89.9059 33.9231 91.3432 34.2343C92.1496 34.4075 97.0403 34.9288 97.0403 34.9288L97.059 41.9165C97.059 41.9165 95.715 41.9943 95.379 42.9106C94.6584 44.8384 95.0224 45.3053 93.2454 51.9934C93.2286 51.9934 93.1464 44.0292 92.0264 40.0976Z" fill="#FFC727"/>
<g opacity="0.1">
<path d="M74.3416 64.3911C70.0323 63.5665 66.2131 60.9932 63.7229 57.2363C61.2326 53.4795 60.275 48.8461 61.0603 44.354C61.6485 41.0043 63.1765 37.9116 65.4512 35.4669C67.726 33.0223 70.6452 31.3354 73.8397 30.6197C77.0343 29.904 80.3608 30.1915 83.3986 31.446C86.4364 32.7004 89.049 34.8654 90.9062 37.6672C92.7633 40.4691 93.7816 43.7819 93.8322 47.1868C93.8828 50.5917 92.9635 53.9357 91.1905 56.7961C89.4174 59.6565 86.8704 61.9048 83.8713 63.2567C80.8723 64.6086 77.556 65.0033 74.3416 64.3911ZM63.2331 44.7742C62.7014 47.8271 63.0978 50.9769 64.3672 53.7837C65.6365 56.5904 67.7153 58.9139 70.3132 60.4296C72.9111 61.9454 75.8984 62.5777 78.8579 62.2383C81.8173 61.8989 84.6012 60.6047 86.8206 58.5364C89.0401 56.4681 90.5842 53.7291 91.2375 50.7019C91.8908 47.6747 91.6205 44.5104 90.4644 41.651C89.3083 38.7916 87.3241 36.3799 84.789 34.7528C82.254 33.1256 79.2945 32.3642 76.324 32.5749C73.1523 32.8059 70.1445 34.1301 67.7744 36.3388C65.4043 38.5474 63.8066 41.5151 63.2331 44.7742Z" fill="black"/>
<path d="M92.0264 40.0976C90.8896 36.1641 84.2686 31.8396 84.2686 31.8396C86.9491 32.5263 89.9059 33.9231 91.3432 34.2343C92.1496 34.4075 97.0403 34.9288 97.0403 34.9288L97.059 41.9165C97.059 41.9165 95.715 41.9943 95.379 42.9106C94.6584 44.8384 95.0224 45.3053 93.2454 51.9934C93.2286 51.9934 93.1464 44.0292 92.0264 40.0976Z" fill="black"/>
</g>
<path d="M72.8729 64.1401C68.5669 63.3154 64.7506 60.7447 62.2609 56.9917C59.7711 53.2388 58.8112 48.61 59.5915 44.1205C60.1759 40.7671 61.7017 37.6697 63.9758 35.2203C66.2499 32.7709 69.1702 31.0796 72.367 30.3604C75.5637 29.6412 78.8934 29.9265 81.9346 31.1801C84.9757 32.4337 87.5917 34.5993 89.4514 37.4029C91.3112 40.2064 92.3311 43.5219 92.3821 46.9298C92.4332 50.3376 91.513 53.6847 89.7381 56.5474C87.9633 59.41 85.4134 61.6597 82.4112 63.0116C79.4091 64.3635 76.0896 64.7569 72.8729 64.142V64.1401ZM61.7643 44.5329C61.2302 47.5883 61.6254 50.7412 62.8946 53.5511C64.1638 56.3611 66.2436 58.6876 68.8434 60.2056C71.4432 61.7236 74.4331 62.3572 77.3953 62.018C80.3576 61.6788 83.1441 60.3836 85.3656 58.3135C87.587 56.2434 89.1324 53.5017 89.7859 50.4716C90.4393 47.4415 90.168 44.2744 89.0101 41.4128C87.8521 38.5512 85.8652 36.1381 83.3271 34.5106C80.789 32.8832 77.8264 32.1228 74.8534 32.3356C71.6823 32.5669 68.6751 33.891 66.3054 36.0992C63.9357 38.3075 62.3382 41.2745 61.7643 44.5329Z" fill="#FFC727"/>
<path d="M90.5479 39.8564C89.4111 35.9229 82.79 31.5984 82.79 31.5984C85.4706 32.2851 88.4274 33.6819 89.8647 33.9931C90.6711 34.1663 95.5618 34.6876 95.5618 34.6876L95.5804 41.0859C95.5804 41.0859 94.2364 41.5099 93.9004 42.4243C93.178 44.3521 93.542 45.0641 91.765 51.7619C91.7594 51.7464 91.6847 43.7879 90.5479 39.8564Z" fill="#FFC727"/>
<path d="M93.4678 37.5608C93.423 37.9051 92.8089 38.1036 92.0958 38.0043C91.3827 37.9051 90.8377 37.5472 90.8825 37.2029C90.9273 36.8585 91.5414 36.6601 92.2545 36.7593C92.9675 36.8585 93.5201 37.2184 93.4678 37.5608Z" fill="#A6A6A6"/>
<path d="M91.1958 37.2165C91.2537 37.0512 91.8753 36.8625 92.5547 37.0551L91.1958 37.2165Z" fill="white"/>
<path d="M68.2881 32.8511C69.7035 31.7277 71.437 31.1262 73.2161 31.1411C71.5361 31.6547 69.9196 32.2111 68.2881 32.8511Z" fill="white"/>
<path d="M61.2974 41.436C62.1336 37.9558 64.9262 34.5981 68.0006 33.0321C65.1222 35.172 62.7086 38.0433 61.2974 41.436Z" fill="white"/>
<path opacity="0.1" d="M62.4454 44.5329C61.064 52.6197 66.1003 60.4011 73.6752 61.8776C81.2502 63.3542 88.5339 57.9733 89.9152 49.8885C91.2966 41.8036 86.2584 34.0183 78.6835 32.5437C77.5445 32.3203 76.3826 32.2503 75.2264 32.3356C69.0048 32.7927 63.6139 37.695 62.4454 44.5329Z" fill="#EBEBEB"/>
<g opacity="0.2">
<path d="M90.1303 47.8985L76.8229 62.0995C75.7688 62.1502 74.7127 62.0731 73.6757 61.87C73.2268 61.7832 72.7825 61.6722 72.3447 61.5373L89.6002 43.1168C90.0219 44.6708 90.2009 46.2853 90.1303 47.8985Z" fill="white"/>
<path d="M77.9707 32.4251L62.3336 49.124C62.1486 47.5965 62.1863 46.0487 62.4456 44.533C62.5091 44.1556 62.5894 43.7801 62.679 43.4125L72.6134 32.7967C73.4679 32.5545 74.3432 32.4001 75.2267 32.3357C76.1419 32.267 77.0614 32.297 77.9707 32.4251Z" fill="white"/>
<path d="M87.862 39.0607L68.5438 59.6814C68.1026 59.3755 67.6793 59.0422 67.2764 58.6835L86.9305 37.7068C87.2659 38.1389 87.577 38.591 87.862 39.0607Z" fill="white"/>
<path d="M81.8181 33.567L63.409 53.215C63.1777 52.6563 62.9794 52.0833 62.8154 51.4992L80.2109 32.925C80.7589 33.1041 81.2957 33.3185 81.8181 33.567Z" fill="white"/>
<path d="M89.9508 49.6824C89.9415 49.7505 89.9285 49.8205 89.9173 49.8886C89.8986 50.0092 89.8762 50.1298 89.8519 50.2465L79.0252 61.8097C78.8516 61.8486 78.6743 61.8836 78.4951 61.9147L89.9508 49.6824Z" fill="white"/>
<path d="M85.8312 36.4423L66.0968 57.5144C66.0259 57.4365 65.9568 57.3568 65.8896 57.277L85.611 36.2186L85.8312 36.4423Z" fill="white"/>
</g>
</svg>
