<svg width="69" height="70" viewBox="0 0 69 70" fill="none" xmlns="http://www.w3.org/2000/svg">
<circle cx="34.5" cy="35.0984" r="34.5" fill="#4285F4"/>
<path d="M39.6861 28.03L45.0316 24.0517C42.1739 21.8948 38.5029 20.5984 34.4993 20.5984C28.1221 20.5984 22.5898 23.8869 19.8437 28.7001C18.6641 30.7655 18 33.1116 18 35.599C18 38.1713 18.7117 40.5919 19.9665 42.7075L19.9684 42.7075C22.7555 47.4058 28.2186 50.5984 34.5022 50.5984C38.4124 50.5984 42.0045 49.3621 44.8322 47.2959C47.7388 45.1712 49.8361 42.1685 50.6392 38.7307C50.8758 37.7202 51 36.6727 51 35.5988C51 34.641 50.9012 33.7039 50.7117 32.7965H34.8622V38.7307H43.6855C42.8912 40.6576 41.3835 42.2672 39.4542 43.2958C38.0015 44.0705 36.3089 44.5151 34.5022 44.5151C30.2963 44.5151 26.7088 42.1085 25.3153 38.7277C24.9128 37.7544 24.6918 36.7001 24.6917 35.599C24.6917 34.5844 24.8785 33.6094 25.2212 32.7012L25.2204 32.6995C26.5444 29.1981 30.1987 26.6816 34.4993 26.6816C36.4041 26.6816 38.182 27.1754 39.6861 28.03Z" fill="white"/>
</svg>
