<svg width="25" height="24" viewBox="0 0 25 24" fill="none" xmlns="http://www.w3.org/2000/svg">
<path d="M11.3866 19.6603L11.3859 19.6596C8.80081 17.3155 6.69567 15.4057 5.23078 13.6147C3.77162 11.8307 3 10.2258 3 8.5C3 5.69614 5.19614 3.5 8 3.5C9.58861 3.5 11.1211 4.24197 12.1193 5.41417L12.5 5.8612L12.8807 5.41417C13.8789 4.24197 15.4114 3.5 17 3.5C19.8039 3.5 22 5.69614 22 8.5C22 10.2258 21.2284 11.8308 19.7691 13.6161C18.3065 15.4055 16.2058 17.3144 13.6265 19.6584L13.6148 19.669L13.6137 19.67L12.5013 20.675L11.3866 19.6603Z" stroke="#DBDBDB"/>
</svg>
