<svg width="69" height="70" viewBox="0 0 69 70" fill="none" xmlns="http://www.w3.org/2000/svg">
<circle cx="34.5" cy="35.0984" r="34.5" fill="#FFE812"/>
<g clip-path="url(#clip0_537_592)">
<path d="M34.0079 20.8289C24.0637 20.8289 16 27.0436 16 34.7128C16 39.6713 19.3689 44.015 24.4425 46.4811L22.616 52.8611C22.616 52.8611 22.5822 53.1586 22.7783 53.271C22.9745 53.3834 23.2113 53.2974 23.2113 53.2974C23.7795 53.2181 29.7732 49.0992 30.8217 48.3852C31.8567 48.5306 32.9323 48.6033 34.0215 48.6033C43.9657 48.6033 52.0294 42.3886 52.0294 34.7194C52.0294 27.0502 43.9522 20.8289 34.0079 20.8289Z" fill="black"/>
<path d="M24.0502 39.5522C23.4752 39.5522 23.0084 39.1158 23.0084 38.5803V32.5441H21.3848C20.8234 32.5441 20.3701 32.1011 20.3701 31.5524C20.3701 31.0037 20.8301 30.5607 21.3848 30.5607H26.7087C27.2702 30.5607 27.7235 31.0037 27.7235 31.5524C27.7235 32.1011 27.2635 32.5441 26.7087 32.5441H25.0852V38.5803C25.0852 39.1092 24.6117 39.5522 24.0434 39.5522H24.0502ZM33.1624 39.539C32.7294 39.539 32.398 39.3671 32.2965 39.0894L31.7824 37.7671H28.6164L28.1023 39.0894C28.0008 39.3671 27.6694 39.539 27.2364 39.539C27.0064 39.539 26.7832 39.4927 26.5735 39.4067C26.2893 39.2745 26.012 38.9241 26.3299 37.9655L28.8126 31.5722C28.9885 31.083 29.5229 30.5805 30.1994 30.5673C30.8759 30.5541 31.4171 31.083 31.5862 31.5722L34.0689 37.9655C34.3868 38.9241 34.1095 39.2877 33.8253 39.4067C33.6224 39.4993 33.3924 39.539 33.1624 39.539ZM31.2344 35.9688L30.1994 33.0862L29.1644 35.9688H31.2344ZM35.7398 39.4067C35.1986 39.4067 34.7454 38.9902 34.7454 38.4811V31.5722C34.7454 31.0103 35.2189 30.5541 35.8074 30.5541C36.396 30.5541 36.8695 31.0169 36.8695 31.5722V37.5357H39.0748C39.616 37.5357 40.0693 37.9522 40.0693 38.4613C40.0693 38.9704 39.6228 39.3869 39.0748 39.3869L35.7398 39.4067ZM40.4684 38.5208V31.5788C40.4684 31.0169 40.9419 30.5607 41.5102 30.5607C42.0784 30.5607 42.5519 31.0235 42.5519 31.5788V33.7606L45.4608 30.9177C45.781 30.6048 46.3864 30.6322 46.7529 30.9904C47.0972 31.3269 47.1867 31.8957 46.8273 32.2532L44.4461 34.5672L47.0032 37.8729C47.3468 38.3027 47.2634 38.9722 46.8003 39.2877C46.3436 39.6183 45.6728 39.5081 45.3458 39.0894L42.9105 35.9358L42.5519 36.2862V38.501C42.5519 39.8202 40.4684 39.871 40.4684 38.5208Z" fill="#FFE812"/>
</g>
<defs>
<clipPath id="clip0_537_592">
<rect width="36.0294" height="35" fill="white" transform="translate(16 19.5984)"/>
</clipPath>
</defs>
</svg>
